<svg height="512" viewBox="0 0 64 64" width="512" xmlns="http://www.w3.org/2000/svg"><g id="medical_certificate-insurance-protect-shield-document" data-name="medical certificate-insurance-protect-shield-document"><path d="m6 26h21v2h-21z"/><path d="m6 32h21v2h-21z"/><path d="m6 38h21v2h-21z"/><path d="m6 44h21v2h-21z"/><path d="m6 50h21v2h-21z"/><path d="m6 56h30v2h-30z"/><path d="m7 16h3v3a1 1 0 0 0 1 1h4a1 1 0 0 0 1-1v-3h3a1 1 0 0 0 1-1v-4a1 1 0 0 0 -1-1h-3v-3a1 1 0 0 0 -1-1h-4a1 1 0 0 0 -1 1v3h-3a1 1 0 0 0 -1 1v4a1 1 0 0 0 1 1zm1-4h3a1 1 0 0 0 1-1v-3h2v3a1 1 0 0 0 1 1h3v2h-3a1 1 0 0 0 -1 1v3h-2v-3a1 1 0 0 0 -1-1h-3z"/><path d="m61.35 26.06-16-6a1.051 1.051 0 0 0 -.7 0l-2.65 1v-16.06a3.009 3.009 0 0 0 -3-3h-34a3.009 3.009 0 0 0 -3 3v54a3.009 3.009 0 0 0 3 3h34a2.992 2.992 0 0 0 2.97-2.68l2.31 2.38a1.014 1.014 0 0 0 1.44 0l11.89-12.24a14.538 14.538 0 0 0 4.39-10.46v-12a1.007 1.007 0 0 0 -.65-.94zm-31.35-22.06h4v9.13l-1.45-.96a.975.975 0 0 0 -1.1 0l-1.45.96zm10 55a1 1 0 0 1 -1 1h-34a1 1 0 0 1 -1-1v-54a1 1 0 0 1 1-1h23v11a.984.984 0 0 0 .53.88.963.963 0 0 0 1.02-.05l2.45-1.63 2.45 1.63a1 1 0 0 0 1.55-.83v-11h3a1 1 0 0 1 1 1v16.81l-11.35 4.25a1.007 1.007 0 0 0 -.65.94v12a14.538 14.538 0 0 0 4.39 10.46l7.61 7.83zm20-20a12.591 12.591 0 0 1 -3.82 9.06l-11.18 11.51-11.18-11.51a.01.01 0 0 1 -.01-.01 12.582 12.582 0 0 1 -3.81-9.05v-11.31l15-5.62 15 5.62z"/><path d="m44 37h2v2h-2z"/><path d="m45 25a13 13 0 1 0 13 13 13.012 13.012 0 0 0 -13-13zm0 24a11 11 0 1 1 11-11 11.007 11.007 0 0 1 -11 11z"/><path d="m53 36a1 1 0 0 0 -1 1h-2.1a5.038 5.038 0 0 0 -.73-1.75l1.49-1.49a1 1 0 0 0 1.41-1.42l-1.41-1.41a1.008 1.008 0 0 0 -1.42 0 1 1 0 0 0 0 1.41l-1.49 1.49a5.038 5.038 0 0 0 -1.75-.73v-2.1a1 1 0 0 0 0-2h-2a1 1 0 0 0 0 2v2.1a5.038 5.038 0 0 0 -1.75.73l-1.49-1.49a1 1 0 0 0 0-1.41 1.008 1.008 0 0 0 -1.42 0l-1.41 1.41a1 1 0 0 0 1.41 1.42l1.49 1.49a5.038 5.038 0 0 0 -.73 1.75h-2.1a1 1 0 0 0 -2 0v2a1 1 0 0 0 2 0h2.1a5.038 5.038 0 0 0 .73 1.75l-1.49 1.49a1 1 0 0 0 -1.41 0 1.008 1.008 0 0 0 0 1.42l1.41 1.41a1.014 1.014 0 0 0 1.42 0 1 1 0 0 0 0-1.41l1.49-1.49a5.038 5.038 0 0 0 1.75.73v2.1a1 1 0 0 0 0 2h2a1 1 0 0 0 0-2v-2.1a5.038 5.038 0 0 0 1.75-.73l1.49 1.49a1 1 0 0 0 0 1.41 1.014 1.014 0 0 0 1.42 0l1.41-1.41a1.008 1.008 0 0 0 0-1.42 1 1 0 0 0 -1.41 0l-1.49-1.49a5.038 5.038 0 0 0 .73-1.75h2.1a1 1 0 0 0 2 0v-2a1 1 0 0 0 -1-1zm-8 5a3 3 0 1 1 3-3 3.009 3.009 0 0 1 -3 3z"/></g></svg>